<svg xmlns="http://www.w3.org/2000/svg" width="42.545" height="42.581"><g data-name="Layer 2"><g fill="#fff" data-name="Layer 1"><path d="M21.298 0c2.8.048 5.611.074 8.411.149a14.344 14.344 0 0 1 6.974 1.713 10.7 10.7 0 0 1 5.36 7.746 35.6 35.6 0 0 1 .454 5.484c.064 4.139.052 8.278.006 12.418a24.463 24.463 0 0 1-.609 6.248 10.906 10.906 0 0 1-9.428 8.418 35.8 35.8 0 0 1-5.31.368c-3.908.052-7.819.045-11.725 0a28.951 28.951 0 0 1-6.171-.511A11.056 11.056 0 0 1 .398 32.49a42.51 42.51 0 0 1-.363-5.263q-.077-5.933 0-11.866a28.589 28.589 0 0 1 .512-6.079 11.049 11.049 0 0 1 9.51-8.844A51.78 51.78 0 0 1 15.598.07c1.9-.061 3.8-.014 5.7-.014a.387.387 0 0 1 0-.056ZM3.852 21.257h.046c0 .736-.019 1.472 0 2.208.085 2.725.072 5.457.305 8.169a7.15 7.15 0 0 0 5.887 6.6 26.83 26.83 0 0 0 5.762.43q5.427.055 10.854 0c1.621-.018 3.248-.1 4.859-.276a7.24 7.24 0 0 0 6.633-5.912 26.834 26.834 0 0 0 .429-5.762q.057-5.427 0-10.854c-.018-1.622-.1-3.248-.276-4.86a7.251 7.251 0 0 0-5.923-6.622 26.583 26.583 0 0 0-5.716-.425c-3.632-.039-7.267-.051-10.9 0a42.874 42.874 0 0 0-5.4.374 6.889 6.889 0 0 0-5.2 3.476 10.547 10.547 0 0 0-1.211 5.13c-.076 2.778-.103 5.556-.149 8.324Z" data-name="Path 31"/><path d="M32.225 21.308a10.953 10.953 0 1 1-10.93-10.952 10.991 10.991 0 0 1 10.93 10.952Zm-3.891-.018a7.064 7.064 0 1 0-7.033 7.084 7.1 7.1 0 0 0 7.033-7.084Z" data-name="Path 32"/><path d="M35.09 9.905a2.541 2.541 0 1 1-2.536-2.544 2.553 2.553 0 0 1 2.536 2.544Z" data-name="Path 33"/></g></g></svg>